# xmcd CD database file
#
# Track frame offsets:
#	150
#	20442
#	42243
#	62604
#	81735
#	95204
#	119307
#	139330
#	157846
#	177197
#	205046
#	225128
#	251850
#
# Disc length: 3688 seconds
#
# Revision: 0
# Processed by: cddbd v1.5.2PL0 Copyright (c) Steve Scherf et al.
# Submitted via: CDex 1.51
#
DISCID=ac0e660d
DTITLE=Mayall, John and Friends - Along for the ride
DYEAR=1900
DGENRE=Blues
TTITLE0=A World of Hurt
TTITLE1=Along for the Ride
TTITLE2= Put It Right Back
TTITLE3=That's Why I Love You So
TTITLE4=Yo Yo Man
TTITLE5=If I Don't Get Home
TTITLE6=Testify
TTITLE7=Early in the Morning
TTITLE8=Something About My Baby
TTITLE9=So Many Roads
TTITLE10=World War Blues
TTITLE11=California
TTITLE12=She Don't Play By the Rules
EXTD=
EXTT0=
EXTT1=
EXTT2=
EXTT3=
EXTT4=
EXTT5=
EXTT6=
EXTT7=
EXTT8=
EXTT9=
EXTT10=
EXTT11=
EXTT12=
PLAYORDER=
